<svg xmlns="http://www.w3.org/2000/svg" viewBox="0 0 305.58 70.9"><title>Logo-PP-Checkout_svg</title><path d="M81.6,89.1H26.7a8,8,0,0,1-8-8V26.2a8,8,0,0,1,8-8H81.6a8,8,0,0,1,8,8V81.1A8,8,0,0,1,81.6,89.1Z" transform="translate(-18.7 -18.2)" style="fill:#223066"/><path d="M35.3,62v9.9a2.33,2.33,0,0,1-2.4,2.2h0a2.33,2.33,0,0,1-2.4-2.2V52" transform="translate(-18.7 -18.2)" style="fill:#fff"/><path d="M44.1,38.7c7.5,0,13.6,5.5,13.6,13.1S51.6,65,44.1,65A13.13,13.13,0,0,1,30.6,51.8C30.5,44.2,36.6,38.7,44.1,38.7Zm0,22.1a8.63,8.63,0,0,0,8.6-9,8.61,8.61,0,1,0-17.2,0A8.57,8.57,0,0,0,44.1,60.8Z" transform="translate(-18.7 -18.2)" style="fill:#fff"/><path d="M57.5,62v9.9a2.33,2.33,0,0,1-2.4,2.2h0a2.33,2.33,0,0,1-2.4-2.2V52" transform="translate(-18.7 -18.2)" style="fill:#fff"/><path d="M66.2,38.7c7.5,0,13.6,5.5,13.6,13.1S73.7,65,66.2,65A13.13,13.13,0,0,1,52.7,51.8C52.7,44.2,58.7,38.7,66.2,38.7Zm0,22.1a8.63,8.63,0,0,0,8.6-9,8.61,8.61,0,1,0-17.2,0A8.69,8.69,0,0,0,66.2,60.8Z" transform="translate(-18.7 -18.2)" style="fill:#fff"/><path d="M144.3,38.7c7.5,0,13.6,5.5,13.6,13.1S151.8,65,144.3,65a13.13,13.13,0,0,1-13.5-13.2C130.8,44.2,136.8,38.7,144.3,38.7Zm0,22.1a8.63,8.63,0,0,0,8.6-9,8.61,8.61,0,1,0-17.2,0A8.63,8.63,0,0,0,144.3,60.8Z" transform="translate(-18.7 -18.2)" style="fill:#223066"/><path d="M163.1,32.6V31a1.39,1.39,0,0,1,1.6-1.6h1.7A1.43,1.43,0,0,1,168,31v1.6a1.47,1.47,0,0,1-1.6,1.6h-1.7A1.43,1.43,0,0,1,163.1,32.6Zm0,8.3a1.43,1.43,0,0,1,1.6-1.6h1.5a1.39,1.39,0,0,1,1.6,1.6V62.7a1.39,1.39,0,0,1-1.6,1.6h-1.5a1.43,1.43,0,0,1-1.6-1.6Z" transform="translate(-18.7 -18.2)" style="fill:#223066"/><path d="M174.9,40.9a1.43,1.43,0,0,1,1.6-1.6h1.4a1.39,1.39,0,0,1,1.6,1.6v2.2a11.35,11.35,0,0,1-.1,1.4h.1a10.36,10.36,0,0,1,9.5-5.9c5.9,0,8.6,3.2,8.6,9.6V62.6a1.39,1.39,0,0,1-1.6,1.6h-1.5a1.43,1.43,0,0,1-1.6-1.6V49.4c0-3.5-.7-6.3-4.7-6.3-4.9,0-8.4,4.1-8.4,9.3V62.8a1.39,1.39,0,0,1-1.6,1.6h-1.5a1.43,1.43,0,0,1-1.6-1.6V40.9Z" transform="translate(-18.7 -18.2)" style="fill:#223066"/><path d="M205.2,43.4h-1.7a1.47,1.47,0,0,1-1.6-1.6v-.6a1.43,1.43,0,0,1,1.6-1.6h1.8V34.1a1.43,1.43,0,0,1,1.6-1.6h1.4a1.39,1.39,0,0,1,1.6,1.6v5.4h4.4a1.43,1.43,0,0,1,1.6,1.6v.6a1.43,1.43,0,0,1-1.6,1.6H210V54.5c0,4.8,2.9,5.5,4.8,5.7,1.3.1,1.7.5,1.7,1.6v1c0,1.1-.6,1.6-2,1.6-5,0-9.3-2.9-9.3-9.2Z" transform="translate(-18.7 -18.2)" style="fill:#223066"/><path d="M219.6,60l.5-.7c.6-.8,1.3-.9,2.3-.3a11.19,11.19,0,0,0,6.2,2c2.5,0,4.3-1.2,4.3-3.3,0-4.9-13-3.3-13-11.8,0-4.8,4.2-7.2,9.1-7.2a13.37,13.37,0,0,1,7,1.9c.9.4,1,1.3.5,2.2l-.5.7c-.5.9-1.2,1-2.2.5a9.73,9.73,0,0,0-5.1-1.4c-2.4,0-4.2,1-4.2,3.2,0,5,13,3.2,13,11.8,0,4.3-3.6,7.4-9,7.4a14.14,14.14,0,0,1-8.4-2.7A1.51,1.51,0,0,1,219.6,60Z" transform="translate(-18.7 -18.2)" style="fill:#223066"/><path d="M104.8,62v9.9a2.33,2.33,0,0,1-2.4,2.2h0a2.33,2.33,0,0,1-2.4-2.2V52" transform="translate(-18.7 -18.2)" style="fill:#223066"/><path d="M113.5,38.7c7.5,0,13.6,5.5,13.6,13.1S121,65,113.5,65A13.13,13.13,0,0,1,100,51.8C100,44.2,106,38.7,113.5,38.7Zm0,22.1a8.63,8.63,0,0,0,8.6-9,8.61,8.61,0,1,0-17.2,0A8.69,8.69,0,0,0,113.5,60.8Z" transform="translate(-18.7 -18.2)" style="fill:#223066"/><path d="M247.6,52V71.8a2.33,2.33,0,0,1-2.4,2.2h0a2.33,2.33,0,0,1-2.4-2.2V52" transform="translate(-18.7 -18.2)" style="fill:#223066"/><path d="M256.3,38.7c7.5,0,13.6,5.5,13.6,13.1S263.8,65,256.3,65a13.13,13.13,0,0,1-13.5-13.2C242.8,44.2,248.8,38.7,256.3,38.7Zm0,22.1a8.63,8.63,0,0,0,8.6-9,8.61,8.61,0,1,0-17.2,0A8.69,8.69,0,0,0,256.3,60.8Z" transform="translate(-18.7 -18.2)" style="fill:#223066"/><path d="M286.5,38.7c7.5,0,13.6,5.5,13.6,13.1S294,65,286.5,65A13.13,13.13,0,0,1,273,51.8C273,44.2,279,38.7,286.5,38.7Zm0,22.1a8.63,8.63,0,0,0,8.6-9,8.61,8.61,0,1,0-17.2,0A8.57,8.57,0,0,0,286.5,60.8Z" transform="translate(-18.7 -18.2)" style="fill:#223066"/><path d="M298.8,65h-2.5a1.16,1.16,0,0,1-1.2-1.2v-12a1.16,1.16,0,0,1,1.2-1.2h2.5a1.16,1.16,0,0,1,1.2,1.2v12A1.22,1.22,0,0,1,298.8,65Z" transform="translate(-18.7 -18.2)" style="fill:#223066"/><path d="M322.8,39.1H321a1.73,1.73,0,0,0-1.8,1.4l-5.7,15.1c-.4,1.3-.8,3-.8,3h-.1a27.63,27.63,0,0,0-.9-3l-5.9-15.2a1.72,1.72,0,0,0-1.8-1.3h-2c-1.2,0-1.7.8-1.2,2l9.7,23c-1.2,4.5-3.3,5.3-5.1,5.4-1.3.1-1.6.5-1.6,1.7v1c0,1.1.5,1.7,1.8,1.7a7.85,7.85,0,0,0,7.5-5.1l11-27.7C324.6,39.9,324,39.1,322.8,39.1Z" transform="translate(-18.7 -18.2)" style="fill:#223066"/></svg>